<?xml version="1.0" encoding="utf-8"?>
<!-- Generator: Adobe Illustrator 28.1.0, SVG Export Plug-In . SVG Version: 6.00 Build 0)  -->
<svg version="1.1" id="Layer_1" xmlns="http://www.w3.org/2000/svg"
    xmlns:xlink="http://www.w3.org/1999/xlink" x="0px" y="0px"
    viewBox="0 0 24 24" style="enable-background:new 0 0 24 24;" xml:space="preserve">
<path class="st0" d="M15.3,16.7l1.4-1.4L13,11.6V7h-2v5.4L15.3,16.7z M12,22c-1.4,0-2.7-0.3-3.9-0.8S5.8,20,4.9,19.1
	c-0.9-0.9-1.6-2-2.1-3.2S2,13.4,2,12s0.3-2.7,0.8-3.9S4,5.8,4.9,4.9s2-1.6,3.2-2.1S10.6,2,12,2s2.7,0.3,3.9,0.8s2.3,1.2,3.2,2.1
	s1.6,2,2.1,3.2C21.7,9.3,22,10.6,22,12s-0.3,2.7-0.8,3.9c-0.5,1.2-1.2,2.3-2.1,3.2c-0.9,0.9-2,1.6-3.2,2.1S13.4,22,12,22z"/>
</svg>