<?xml version="1.0" encoding="UTF-8"?>
<svg id="Layer_1" data-name="Layer 1" xmlns="http://www.w3.org/2000/svg"
    xmlns:xlink="http://www.w3.org/1999/xlink" viewBox="0 0 32 42">
    <defs>
        <style>
            .cls-1 {
            stroke-width: 0px;
            }

            .cls-1, .cls-2 {
            fill: none;
            }

            .cls-2 {
            stroke-miterlimit: 10;
            stroke-width: 2px;
            }

            .cls-3 {
            clip-path: url(#clippath);
            }
        </style>
        <clipPath id="clippath">
            <rect class="cls-1" x="1.5" y="1" width="29" height="40" />
        </clipPath>
    </defs>
    <g class="cls-3">
        <g>
            <path class="cls-2"
                d="M1.87,40c2.14-.57,8.1-2.1,12.99-8.06,5.23-6.4,5.63-13.32,5.66-15.44" />
            <path class="cls-2"
                d="M17.57,28.45s2.39,1.18,5.01,1.18,5.52-1.18,6.46-4.24c1.88-6.1,0-4.63,0-4.63,0,0-2.52,1.67-4.31,1.89-1.79.23-5.33,1.46-6.06,2.83" />
            <path class="cls-2"
                d="M17.62,28.4s-2.44-.03-4.6-1.5c-2.17-1.47-3.88-4.06-2.92-7.11,1.93-6.09,2.64-3.83,2.64-3.83,0,0,1.14,2.79,2.48,3.97,1.34,1.18,3.57,4.18,3.39,5.72" />
            <path class="cls-2"
                d="M9.88,36.49s-1.79-1.09-3.96-2.56c-2.17-1.47-3.88-4.06-2.92-7.11,1.93-6.09,2.64-3.83,2.64-3.83,0,0,1.14,2.79,2.48,3.97,1.34,1.18,5.41,4.71,5.79,5.97" />
            <path class="cls-2"
                d="M12.34,34.9s1.57,2.13,3.9,3.33c2.33,1.2,5.45,1.46,7.71-.83,4.5-4.57,2.15-4.12,2.15-4.12,0,0-3.01.33-4.71-.28-1.69-.61-5.99-1.1-7.26-.22" />
            <path class="cls-2"
                d="M24.78,8.87c-.24,3.13-2.02,7.21-4.12,7.21s-3.89-4.07-4.12-7.21c-.27-3.71,1.56-7.26,2.67-7.21.48.02.72.71,1.47.7.76,0,1-.72,1.47-.75,1.08-.06,2.93,3.5,2.65,7.26h0Z" />
        </g>
    </g>
</svg>