<svg width="59" height="51" viewBox="0 0 59 51" fill="none" xmlns="http://www.w3.org/2000/svg">
<path d="M54.5001 11.4236C54.5001 12.702 53.9705 13.7704 52.9113 14.6287C51.8703 15.4871 50.4184 16.0167 48.5557 16.2176C48.6287 16.9481 48.7565 17.5416 48.9392 17.9982C49.1401 18.4547 49.3775 18.82 49.6514 19.0939C49.9254 19.3496 50.2358 19.5322 50.5828 19.6418C50.9481 19.7331 51.3224 19.7788 51.706 19.7788C52.2904 19.7788 52.8382 19.6783 53.3496 19.4774C53.8792 19.2765 54.3175 18.9296 54.6645 18.4365C54.6828 18.5643 54.6919 18.6921 54.6919 18.82C54.7102 18.9296 54.7193 19.03 54.7193 19.1213C54.7193 19.5414 54.6097 19.9157 54.3906 20.2445C54.1897 20.5732 53.9066 20.8654 53.5413 21.1211C53.1944 21.3585 52.7834 21.5411 52.3086 21.6689C51.8521 21.7968 51.3681 21.8607 50.8567 21.8607C50.2358 21.8607 49.6149 21.7511 48.994 21.532C48.373 21.2946 47.8069 20.9293 47.2955 20.4362C46.8025 19.9249 46.4007 19.2674 46.0902 18.4639C45.7797 17.6603 45.6245 16.6833 45.6245 15.5327C45.6245 14.7657 45.7067 13.9347 45.8711 13.0399C46.0537 12.145 46.3459 11.3141 46.7477 10.547C47.1677 9.78 47.7064 9.14081 48.3639 8.62945C49.0396 8.1181 49.8706 7.86243 50.8567 7.86243C51.3133 7.86243 51.7516 7.91721 52.1717 8.02679C52.61 8.1181 53.0026 8.30073 53.3496 8.57467C53.6966 8.83034 53.9705 9.18646 54.1714 9.64303C54.3906 10.0996 54.5001 10.6931 54.5001 11.4236ZM48.5283 15.1492C49.8249 14.9483 50.8476 14.4917 51.5964 13.7795C52.3634 13.0673 52.7469 12.1907 52.7469 11.1497C52.7469 10.4557 52.6282 9.96262 52.3908 9.67042C52.1534 9.35996 51.8155 9.20473 51.3772 9.20473C50.9024 9.20473 50.4824 9.38735 50.1171 9.7526C49.7701 10.1179 49.4779 10.5927 49.2405 11.1771C49.0031 11.7432 48.8205 12.3824 48.6926 13.0947C48.5831 13.7886 48.5283 14.4735 48.5283 15.1492Z" fill="#CCD4DA"/>
<path d="M42.7804 2.52063V17.3133C42.7804 17.496 42.7895 17.7242 42.8078 17.9982C42.8261 18.2721 42.8717 18.5461 42.9448 18.82C43.0361 19.0757 43.1639 19.304 43.3283 19.5048C43.4926 19.6875 43.7209 19.7788 44.0131 19.7788C44.908 19.7788 45.5654 18.7835 45.9855 16.7928H46.9991C46.7982 17.9434 46.5425 18.8565 46.232 19.5322C45.9216 20.1897 45.5928 20.6919 45.2459 21.0389C44.8989 21.3859 44.5427 21.605 44.1775 21.6964C43.8122 21.8059 43.4835 21.8607 43.1913 21.8607C42.5521 21.8607 42.0316 21.742 41.6299 21.5046C41.2281 21.2489 40.9085 20.9293 40.6711 20.5458C40.4337 20.1623 40.2693 19.7331 40.178 19.2583C40.0867 18.7835 40.041 18.3269 40.041 17.8886V2.90414L42.7804 2.52063Z" fill="#CCD4DA"/>
<path d="M36.8414 7.99939V17.3133C36.8414 17.4959 36.8506 17.7242 36.8688 17.9982C36.8871 18.2721 36.9328 18.546 37.0058 18.82C37.0971 19.0757 37.225 19.3039 37.3893 19.5048C37.5537 19.6874 37.782 19.7788 38.0742 19.7788C38.969 19.7788 39.6265 18.7835 40.0465 16.7928H41.0601C40.8592 17.9434 40.6035 18.8565 40.2931 19.5322C39.9826 20.1897 39.6539 20.6919 39.3069 21.0389C38.9599 21.3859 38.6038 21.605 38.2385 21.6963C37.8733 21.8059 37.5446 21.8607 37.2523 21.8607C36.6132 21.8607 36.0927 21.742 35.6909 21.5046C35.2891 21.2489 34.9695 20.9293 34.7321 20.5458C34.4947 20.1623 34.3303 19.7331 34.239 19.2583C34.1477 18.7835 34.1021 18.3269 34.1021 17.8886V7.99939H36.8414Z" fill="#CCD4DA"/>
<path d="M27.6111 7.86243C28.3233 7.86243 28.9351 7.972 29.4465 8.19115C29.9578 8.4103 30.3779 8.72077 30.7066 9.12254C31.0353 9.50606 31.291 9.96262 31.4736 10.4922C31.6745 11.0219 31.8206 11.588 31.9119 12.1907H32.0763C32.8433 12.1907 33.5464 12.0354 34.1856 11.725C34.8248 11.4145 35.3727 11.0219 35.8293 10.547L36.2402 11.2867C35.8749 11.8711 35.2905 12.355 34.487 12.7385C33.7017 13.1221 32.889 13.3869 32.0489 13.533C32.0489 13.7156 32.0489 13.8982 32.0489 14.0808C32.0672 14.2635 32.0763 14.4552 32.0763 14.6561C32.0763 16.9024 31.6654 18.6648 30.8436 19.9431C30.0218 21.2215 28.8712 21.8607 27.3919 21.8607C26.7893 21.8607 26.1775 21.7511 25.5566 21.532C24.9539 21.3128 24.406 20.9476 23.9129 20.4362C23.4198 19.9249 23.0181 19.2674 22.7076 18.4639C22.4154 17.6603 22.2693 16.665 22.2693 15.4779C22.2693 14.6744 22.3515 13.8252 22.5158 12.9303C22.6985 12.0354 22.9907 11.2136 23.3924 10.4648C23.8125 9.71608 24.3604 9.09515 25.0361 8.60206C25.73 8.10897 26.5884 7.86243 27.6111 7.86243ZM27.885 19.7788C28.853 19.7788 29.5652 19.3039 30.0218 18.3543C30.4783 17.3864 30.7066 16.0258 30.7066 14.2726C30.7066 14.163 30.7066 14.0534 30.7066 13.9439C30.7066 13.8343 30.6975 13.7247 30.6792 13.6151C30.1496 13.5786 29.7661 13.4599 29.5287 13.259C29.3095 13.0581 29.1999 12.7203 29.1999 12.2454C29.1999 11.8254 29.2913 11.5332 29.4739 11.3688C29.6565 11.1862 29.9304 11.0858 30.2957 11.0675C30.0765 10.4283 29.7935 9.99002 29.4465 9.7526C29.1178 9.49693 28.7434 9.36909 28.3233 9.36909C27.7572 9.36909 27.2732 9.56085 26.8715 9.94436C26.4879 10.3096 26.1684 10.7844 25.9127 11.3688C25.6753 11.9532 25.5018 12.6016 25.3922 13.3138C25.2826 14.0078 25.2278 14.6926 25.2278 15.3684C25.2278 16.2632 25.31 16.9937 25.4744 17.5599C25.6387 18.126 25.8488 18.5734 26.1044 18.9022C26.3601 19.2309 26.6432 19.4592 26.9536 19.587C27.2641 19.7149 27.5746 19.7788 27.885 19.7788Z" fill="#CCD4DA"/>
<path d="M18.891 3.83557V7.99944H21.0003V8.95823H18.891V17.3134C18.891 17.5325 18.9001 17.7882 18.9184 18.0804C18.9367 18.3543 18.9823 18.6191 19.0554 18.8748C19.1467 19.1305 19.2745 19.3496 19.4389 19.5323C19.6215 19.6966 19.868 19.7788 20.1785 19.7788C20.6716 19.7788 21.1373 19.5323 21.5756 19.0392C22.0322 18.5461 22.3883 17.7973 22.644 16.7929H23.6575C23.3471 17.9434 23.0092 18.8566 22.644 19.5323C22.297 20.1897 21.9317 20.6919 21.5482 21.0389C21.1647 21.3859 20.7812 21.6051 20.3977 21.6964C20.0324 21.806 19.6946 21.8608 19.3841 21.8608C18.7266 21.8608 18.1879 21.742 17.7678 21.5046C17.3478 21.249 17.0191 20.9294 16.7817 20.5458C16.5443 20.1623 16.3799 19.7423 16.2886 19.2857C16.1973 18.8109 16.1516 18.3452 16.1516 17.8886V8.95823H15.2202V7.99944H16.1516V4.21909L18.891 3.83557Z" fill="#CCD4DA"/>
<path d="M16.8839 17.0393C16.6283 17.8611 16.2539 18.5916 15.7608 19.2308C15.2677 19.87 14.6924 20.4088 14.035 20.8471C13.3775 21.2854 12.6653 21.6141 11.8982 21.8332C11.1312 22.0707 10.3551 22.1894 9.56976 22.1894C8.52879 22.1894 7.63393 22.0067 6.88516 21.6415C6.15466 21.258 5.55199 20.774 5.07716 20.1896C4.6206 19.6052 4.28274 18.9478 4.06359 18.2173C3.84444 17.4685 3.73486 16.7197 3.73486 15.971C3.73486 14.6195 4.05446 13.4507 4.69365 12.4645C5.3511 11.4784 6.26423 10.7479 7.43304 10.273C6.55643 9.72515 5.92637 9.09509 5.54286 8.38284C5.15935 7.6706 4.96759 6.92184 4.96759 6.13655C4.96759 5.53388 5.07716 4.93121 5.29632 4.32855C5.51547 3.72588 5.85332 3.18714 6.30989 2.71231C6.76645 2.23748 7.32346 1.85397 7.98092 1.56177C8.65663 1.2513 9.45106 1.09607 10.3642 1.09607C10.8573 1.09607 11.3504 1.15086 11.8435 1.26043C12.3548 1.37001 12.8114 1.56177 13.2132 1.8357C13.6149 2.09138 13.9345 2.4475 14.1719 2.90407C14.4276 3.34237 14.5555 3.89938 14.5555 4.57509C14.5555 5.26907 14.4185 5.81695 14.1445 6.21873C13.8706 6.6205 13.5054 6.82139 13.0488 6.82139C12.5557 6.82139 12.0717 6.57485 11.5969 6.08176C11.8526 5.97218 12.0991 5.75303 12.3365 5.4243C12.5922 5.07731 12.7201 4.63901 12.7201 4.1094C12.7201 3.76241 12.6561 3.47021 12.5283 3.23279C12.4005 2.97712 12.227 2.7671 12.0078 2.60273C11.8069 2.43837 11.5786 2.31966 11.323 2.24661C11.0673 2.17356 10.8025 2.13704 10.5285 2.13704C10.0355 2.13704 9.59716 2.24661 9.21364 2.46576C8.83013 2.68491 8.51053 2.97712 8.25486 3.34237C7.99918 3.68936 7.79829 4.09113 7.65219 4.5477C7.52435 4.986 7.46043 5.43344 7.46043 5.89C7.46043 6.09089 7.4787 6.40135 7.51522 6.82139C7.57001 7.22317 7.69785 7.65234 7.89873 8.10891C8.11789 8.54721 8.42835 8.97638 8.83013 9.39642C9.25017 9.7982 9.81631 10.0813 10.5285 10.2456C9.32322 10.5196 8.39182 11.1405 7.73437 12.1084C7.09518 13.0581 6.77559 14.1904 6.77559 15.5053C6.77559 16.8202 7.12257 17.9068 7.81655 18.7651C8.52879 19.6052 9.61542 20.0253 11.0764 20.0253C11.7339 20.0253 12.3365 19.9431 12.8844 19.7787C13.4506 19.5961 13.9437 19.3587 14.3637 19.0665C14.802 18.756 15.1764 18.409 15.4868 18.0255C15.7973 17.6237 16.0347 17.2037 16.1991 16.7654L16.8839 17.0393Z" fill="#CCD4DA"/>
<path d="M35.1396 1.83512C35.2443 1.51267 35.7005 1.51267 35.8053 1.83513L36.3164 3.40812C36.3632 3.55233 36.4976 3.64996 36.6493 3.64996H38.3032C38.6423 3.64996 38.7832 4.08383 38.5089 4.28312L37.1709 5.25528C37.0482 5.34441 36.9969 5.50239 37.0437 5.6466L37.5548 7.21959C37.6596 7.54205 37.2905 7.81019 37.0162 7.6109L35.6781 6.63874C35.5555 6.54961 35.3894 6.54961 35.2667 6.63874L33.9286 7.6109C33.6543 7.81019 33.2853 7.54205 33.39 7.21959L33.9011 5.6466C33.948 5.50239 33.8967 5.34441 33.774 5.25528L32.4359 4.28312C32.1616 4.08383 32.3026 3.64996 32.6416 3.64996H34.2956C34.4472 3.64996 34.5816 3.55233 34.6285 3.40812L35.1396 1.83512Z" fill="#CCD4DA"/>
<path d="M9.44851 44.5953C9.90451 44.5713 10.2165 44.4693 10.3845 44.2893C10.5525 44.0973 10.6425 43.8393 10.6545 43.5153C10.6785 43.1793 10.6905 42.8013 10.6905 42.3813V34.6053C10.6905 34.3653 10.6965 34.1373 10.7085 33.9213C10.7205 33.6933 10.7325 33.4893 10.7445 33.3093C10.5285 33.3213 10.3125 33.3333 10.0965 33.3453C9.88051 33.3573 9.66451 33.3693 9.44851 33.3813V32.5893L13.6965 32.5713C14.7765 32.5713 15.7665 32.6973 16.6665 32.9493C17.5665 33.2013 18.3405 33.5913 18.9885 34.1193C19.6485 34.6353 20.1525 35.2953 20.5005 36.0993C20.8605 36.8913 21.0405 37.8273 21.0405 38.9073C21.0405 39.7353 20.8965 40.5273 20.6085 41.2833C20.3205 42.0393 19.8885 42.7113 19.3125 43.2993C18.7365 43.8753 18.0165 44.3373 17.1525 44.6853C16.3005 45.0213 15.3105 45.1893 14.1825 45.1893H9.44851V44.5953ZM12.2565 43.0653C12.2565 43.3893 12.2505 43.6653 12.2385 43.8933C12.2385 44.1213 12.2265 44.3133 12.2025 44.4693C12.5265 44.4813 12.8205 44.4933 13.0845 44.5053C13.3605 44.5053 13.5885 44.5053 13.7685 44.5053C13.9605 44.5053 14.0805 44.5053 14.1285 44.5053C14.9085 44.5053 15.6105 44.3613 16.2345 44.0733C16.8705 43.7853 17.4105 43.3893 17.8545 42.8853C18.3105 42.3693 18.6585 41.7693 18.8985 41.0853C19.1505 40.3893 19.2765 39.6393 19.2765 38.8353C19.2765 37.6953 19.0665 36.7113 18.6465 35.8833C18.2385 35.0433 17.6085 34.3953 16.7565 33.9393C15.9045 33.4713 14.8185 33.2373 13.4985 33.2373C13.0545 33.2373 12.7425 33.3273 12.5625 33.5073C12.3945 33.6873 12.2985 33.9393 12.2745 34.2633C12.2625 34.5873 12.2565 34.9653 12.2565 35.3973V43.0653ZM23.0984 36.5493L22.6124 36.1893C22.7444 36.0213 22.8824 35.7813 23.0264 35.4693C23.1704 35.1573 23.2844 34.8153 23.3684 34.4433C23.4644 34.0593 23.4884 33.6873 23.4404 33.3273C23.3564 33.3633 23.2784 33.3933 23.2064 33.4173C23.1344 33.4293 23.0624 33.4353 22.9904 33.4353C22.7624 33.4353 22.5644 33.3513 22.3964 33.1833C22.2404 33.0153 22.1624 32.8053 22.1624 32.5533C22.1624 32.2173 22.2584 31.9593 22.4504 31.7793C22.6544 31.5993 22.8884 31.5093 23.1524 31.5093C23.5724 31.5093 23.8904 31.6713 24.1064 31.9953C24.3224 32.3073 24.4304 32.6913 24.4304 33.1473C24.4304 33.4473 24.3704 33.8133 24.2504 34.2453C24.1424 34.6773 23.9864 35.1033 23.7824 35.5233C23.5904 35.9313 23.3624 36.2733 23.0984 36.5493ZM31.7961 45.4773C30.6561 45.4773 29.6781 45.2853 28.8621 44.9013C28.0461 44.5173 27.3801 44.0073 26.8641 43.3713C26.3601 42.7233 25.9881 42.0093 25.7481 41.2293C25.5081 40.4493 25.3881 39.6693 25.3881 38.8893C25.3881 38.1333 25.5141 37.3713 25.7661 36.6033C26.0181 35.8233 26.4021 35.1093 26.9181 34.4613C27.4461 33.8133 28.1001 33.2913 28.8801 32.8953C29.6721 32.4993 30.5961 32.3013 31.6521 32.3013C32.7561 32.3013 33.7101 32.4993 34.5141 32.8953C35.3181 33.2913 35.9781 33.8193 36.4941 34.4793C37.0221 35.1273 37.4121 35.8353 37.6641 36.6033C37.9281 37.3713 38.0601 38.1333 38.0601 38.8893C38.0601 39.6333 37.9341 40.3953 37.6821 41.1753C37.4301 41.9433 37.0401 42.6573 36.5121 43.3173C35.9961 43.9653 35.3481 44.4873 34.5681 44.8833C33.7881 45.2793 32.8641 45.4773 31.7961 45.4773ZM31.8321 44.7393C32.5761 44.7393 33.2241 44.5833 33.7761 44.2713C34.3281 43.9473 34.7841 43.5213 35.1441 42.9933C35.5161 42.4533 35.7921 41.8593 35.9721 41.2113C36.1641 40.5513 36.2601 39.8913 36.2601 39.2313C36.2601 38.4873 36.1581 37.7493 35.9541 37.0173C35.7501 36.2853 35.4501 35.6193 35.0541 35.0193C34.6581 34.4193 34.1661 33.9393 33.5781 33.5793C33.0021 33.2073 32.3421 33.0213 31.5981 33.0213C30.8541 33.0213 30.2001 33.1833 29.6361 33.5073C29.0841 33.8313 28.6221 34.2633 28.2501 34.8033C27.8901 35.3313 27.6141 35.9253 27.4221 36.5853C27.2421 37.2333 27.1521 37.8933 27.1521 38.5653C27.1521 39.2253 27.2421 39.9153 27.4221 40.6353C27.6141 41.3553 27.9021 42.0273 28.2861 42.6513C28.6701 43.2753 29.1561 43.7793 29.7441 44.1633C30.3321 44.5473 31.0281 44.7393 31.8321 44.7393ZM39.6829 45.1893V44.5953C40.1389 44.5713 40.4509 44.4693 40.6189 44.2893C40.7869 44.0973 40.8769 43.8393 40.8889 43.5153C40.9129 43.1793 40.9249 42.8013 40.9249 42.3813V34.6053C40.9249 34.3653 40.9309 34.1373 40.9429 33.9213C40.9549 33.6933 40.9669 33.4893 40.9789 33.3093C40.7629 33.3213 40.5469 33.3333 40.3309 33.3453C40.1149 33.3573 39.8989 33.3693 39.6829 33.3813V32.5893C40.3549 32.5773 41.0329 32.5653 41.7169 32.5533C42.4129 32.5413 43.1089 32.5473 43.8049 32.5713C44.9689 32.5833 45.9049 32.7213 46.6129 32.9853C47.3329 33.2373 47.8609 33.6033 48.1969 34.0833C48.5329 34.5513 48.7009 35.1213 48.7009 35.7933C48.7129 36.2613 48.6229 36.7413 48.4309 37.2333C48.2509 37.7133 47.9149 38.1453 47.4229 38.5293C46.9429 38.9133 46.2469 39.2013 45.3349 39.3933C45.5749 39.5613 45.7849 39.7773 45.9649 40.0413C46.1449 40.3053 46.3489 40.6113 46.5769 40.9593L47.8009 42.8853C48.0049 43.2093 48.2029 43.5033 48.3949 43.7673C48.5869 44.0193 48.8089 44.2233 49.0609 44.3793C49.3129 44.5233 49.6249 44.5953 49.9969 44.5953V45.1893H47.7289C47.3809 44.8773 47.0869 44.5653 46.8469 44.2533C46.6189 43.9413 46.3789 43.5873 46.1269 43.1913L44.9209 41.2653C44.7649 41.0133 44.5849 40.7253 44.3809 40.4013C44.1889 40.0653 43.9669 39.7833 43.7149 39.5553C43.5229 39.5673 43.3189 39.5733 43.1029 39.5733C42.8989 39.5733 42.6949 39.5673 42.4909 39.5553V43.0473C42.4909 43.3713 42.4849 43.6533 42.4729 43.8933C42.4729 44.1213 42.4609 44.3133 42.4369 44.4693C42.5809 44.4573 42.7249 44.4513 42.8689 44.4513C43.0129 44.4393 43.1569 44.4273 43.3009 44.4153C43.4449 44.4033 43.5889 44.3973 43.7329 44.3973V45.1893H39.6829ZM43.6069 38.8893C44.2669 38.8653 44.8429 38.7573 45.3349 38.5653C45.8389 38.3733 46.2349 38.0673 46.5229 37.6473C46.8109 37.2273 46.9549 36.6753 46.9549 35.9913C46.9549 35.5353 46.8889 35.1393 46.7569 34.8033C46.6369 34.4553 46.4449 34.1673 46.1809 33.9393C45.9169 33.7113 45.5809 33.5433 45.1729 33.4353C44.7649 33.3153 44.2849 33.2553 43.7329 33.2553C43.2889 33.2553 42.9769 33.3453 42.7969 33.5253C42.6289 33.7053 42.5329 33.9573 42.5089 34.2813C42.4969 34.5933 42.4909 34.9653 42.4909 35.3973V38.8533C42.6829 38.8653 42.8629 38.8773 43.0309 38.8893C43.2109 38.9013 43.4029 38.9013 43.6069 38.8893Z" fill="#897751"/>

</svg>
