<?xml version="1.0" encoding="UTF-8"?>
<svg id="Layer_5" data-name="Layer 5" xmlns="http://www.w3.org/2000/svg" viewBox="0 0 50 60">
    <defs>
        <style>
            .cls-1 {
            fill: none;
            stroke-miterlimit: 10;
            }
        </style>
    </defs>
    <path class="cls-1"
        d="M41.89,35.88c-.17,1.12-.7,3.26-1.01,5.94-.3,2.68-1.42,6.73-4.17,10.43-2.74,3.7-8.76,4.33-8.76,4.33-.53.47-2.41,1.58-6.21,1.43-3.8-.15-5.44-2.96-5.44-2.96,0,0-2.83-1.91-3.96-3.72-1.13-1.81-.49-6.62-.49-8.62s-.97-7.83-1.69-8.72c-.72-.9-2.98-6.73-2.61-10.39.37-3.66,5.24-4,5.24-4,0,0,1.27,0,2.1-1.46.87-1.53,2.53-2.14,4.95-2.02,1.16.06,2.11.69,2.96,1.42.26.22.66.1.73-.21.51-2.44,2.27-10.52,3.6-12.02,1.57-1.77,2.86-4.24,7.32-2.98,4.44,1.25,1.34,4.49.46,4.85-.87.36-3.54.59-5.23,4.4-1.7,3.81-1.98,5.26-1.98,5.26-.17.48-.32,1.05-.09,1.19.25.16.84-.29,1.13-.49,1.74-1.19,4.69-1.36,6.33-.87.89.27,1.6,1.6,1.95,2.38.13.29.5.41.81.27.63-.3,1.65-.69,2.4-.53,1.15.26,1.48,5.71,2.08,7.45.6,1.75-.22,8.52-.39,9.64Z" />
</svg>