<?xml version="1.0" encoding="utf-8"?>
<!-- Generator: Adobe Illustrator 28.1.0, SVG Export Plug-In . SVG Version: 6.00 Build 0)  -->
<svg version="1.1" id="Layer_1" xmlns="http://www.w3.org/2000/svg" xmlns:xlink="http://www.w3.org/1999/xlink" x="0px" y="0px"
	 viewBox="0 0 24 24" style="enable-background:new 0 0 24 24;" xml:space="preserve">
<path d="M20.8,22c-2.3,0-4.6-0.5-6.8-1.5s-4.3-2.4-6.1-4.3S4.5,12.2,3.5,10S2,5.5,2,3.2c0-0.3,0.1-0.6,0.3-0.8S2.8,2,3.2,2h4.5
	c0.2,0,0.5,0.1,0.7,0.2s0.3,0.4,0.4,0.7l0.7,3.9c0,0.3,0,0.6,0,0.8C9.3,7.8,9.2,7.9,9.1,8.1l-2.7,2.8c0.3,0.7,0.8,1.3,1.3,2
	c0.5,0.7,1.1,1.2,1.7,1.8c0.6,0.6,1.2,1.1,1.8,1.6s1.3,0.9,2,1.3l2.6-2.6c0.2-0.2,0.4-0.3,0.7-0.4c0.2-0.1,0.5-0.1,0.8-0.1l3.8,0.8
	c0.2,0.1,0.5,0.2,0.7,0.4c0.2,0.2,0.2,0.4,0.2,0.7v4.5c0,0.3-0.1,0.6-0.3,0.8C21.4,21.9,21.1,22,20.8,22z"/>
</svg>
