<?xml version="1.0" encoding="utf-8"?>
<!-- Generator: Adobe Illustrator 28.1.0, SVG Export Plug-In . SVG Version: 6.00 Build 0)  -->
<svg version="1.1" id="Layer_1" xmlns="http://www.w3.org/2000/svg"
    xmlns:xlink="http://www.w3.org/1999/xlink" x="0px" y="0px"
    viewBox="0 0 24 24" style="enable-background:new 0 0 24 24;" xml:space="preserve">
<path class="st0" d="M12,19c-2.3-1.7-4.1-3.4-5.3-5.1S5,10.7,5,9.1C5,7.1,5.7,5.4,7,4s3-2,5-2s3.8,0.7,5.1,2C18.4,5.4,19,7.1,19,9.1
	c0,1.6-0.6,3.2-1.7,4.8S14.4,17.3,12,19z M12,11c0.6,0,1-0.2,1.4-0.6C13.8,10,14,9.6,14,9s-0.2-1-0.6-1.4C13,7.2,12.6,7,12,7
	s-1,0.2-1.4,0.6C10.2,8,10,8.4,10,9s0.2,1,0.6,1.4C11,10.8,11.4,11,12,11z M5,22v-2h14v2H5z"/>
</svg>