<?xml version="1.0" encoding="UTF-8"?>
<svg id="Layer_1" data-name="Layer 1" xmlns="http://www.w3.org/2000/svg" viewBox="0 0 35 60">
    <defs>
        <style>
            .cls-1 {
            fill: none;
            stroke-miterlimit: 10;
            }

            .cls-2 {
            stroke-width: 0px;
            }
        </style>
    </defs>
    <path class="cls-1"
        d="M31.28,51.77c0,2.11-1.71,3.83-3.83,3.83H7.54c-2.12,0-3.83-1.72-3.83-3.83l2.66-30.97c0-.94.99-1.7,2.21-1.7h.3c-.58-.68-.93-1.55-.93-2.5,0-.76.31-1.45.8-1.95.5-.49,1.19-.8,1.95-.8h13.59c1.52,0,2.75,1.23,2.75,2.75,0,.95-.35,1.82-.93,2.5h.3c1.22,0,2.21.76,2.21,1.7l2.66,30.97Z" />
    <path class="cls-1"
        d="M17.65,4.4h0c3.98,0,7.21,3.23,7.21,7.21v2.23h-14.43v-2.23c0-3.98,3.23-7.21,7.21-7.21Z" />
    <g>
        <circle class="cls-2" cx="15.12" cy="8.86" r=".52" />
        <circle class="cls-2" cx="17.65" cy="7.98" r=".52" />
        <circle class="cls-2" cx="20.17" cy="8.86" r=".52" />
    </g>
</svg>